<?xml version="1.0" encoding="UTF-8" standalone="no"?>
<!-- Created with Inkscape (http://www.inkscape.org/) -->

<svg
   xmlns:dc="http://purl.org/dc/elements/1.1/"
   xmlns:cc="http://creativecommons.org/ns#"
   xmlns:rdf="http://www.w3.org/1999/02/22-rdf-syntax-ns#"
   xmlns:svg="http://www.w3.org/2000/svg"
   xmlns="http://www.w3.org/2000/svg"
   xmlns:sodipodi="http://sodipodi.sourceforge.net/DTD/sodipodi-0.dtd"
   xmlns:inkscape="http://www.inkscape.org/namespaces/inkscape"
   version="1.1"
   id="svg2"
   width="480"
   height="480"
   viewBox="0 0 480 480"
   sodipodi:docname="wvh_logo_1c_ohne_Schrift.svg"
   inkscape:version="0.92.3 (2405546, 2018-03-11)"
   inkscape:export-filename="C:\Users\sasch\Downloads\wvh_logo_1c.png"
   inkscape:export-xdpi="100"
   inkscape:export-ydpi="100">
  <metadata
     id="metadata8">
    <rdf:RDF>
      <cc:Work
         rdf:about="">
        <dc:format>image/svg+xml</dc:format>
        <dc:type
           rdf:resource="http://purl.org/dc/dcmitype/StillImage" />
        <dc:title></dc:title>
      </cc:Work>
    </rdf:RDF>
  </metadata>
  <defs
     id="defs6" />
  <sodipodi:namedview
     pagecolor="#ffffff"
     bordercolor="#666666"
     borderopacity="1"
     objecttolerance="10"
     gridtolerance="10"
     guidetolerance="10"
     inkscape:pageopacity="0"
     inkscape:pageshadow="2"
     inkscape:window-width="1920"
     inkscape:window-height="1001"
     id="namedview4"
     showgrid="false"
     inkscape:zoom="0.59618807"
     inkscape:cx="730.9704"
     inkscape:cy="197.7267"
     inkscape:window-x="-9"
     inkscape:window-y="-9"
     inkscape:window-maximized="1"
     inkscape:current-layer="svg2" />
  <g
     id="g4608"
     transform="matrix(0.85734651,0,0,0.85734651,609.54287,153.1053)">
    <g
       id="g4595">
      <g
         id="g4583">
        <g
           id="g4572">
          <g
             id="g4562">
            <g
               id="g4553">
              <g
                 id="g4545">
                <g
                   id="g4538">
                  <g
                     id="g4532">
                    <g
                       id="g4527">
                      <g
                         id="g4523">
                        <path
                           inkscape:connector-curvature="0"
                           id="path4520"
                           d="m -439.61656,334.51273 c -59.98118,-29.21772 -100.6931,-62.36433 -129.51431,-105.44727 -15.4849,-23.14735 -26.62331,-49.28169 -33.4942,-78.58827 l -2.81339,-12 -0.206,-118.664072 c -0.15906,-91.622629 0.0688,-118.886959 1,-119.64215 3.20945,-2.602908 36.72519,-14.361618 49.85943,-17.533988 13.13424,-3.17237 44.5543,-11.00116 66.34657,-14.05754 41.46069,-5.63463 94.67994,-5.065 135.3676,1.44892 21.06034,3.37166 45.67133,8.97815 53.86049,11.69356 8.18917,2.71541 28.79097,8.95585 42.67092,14.35488 l 10.35942,4.076948 0.73063,89.16172 c 0.95156,116.120782 0.57459,140.565572 -2.39277,155.161722 -7.1124,34.98527 -19.37627,63.66216 -38.91676,91 -23.12444,32.3519 -55.34252,60.35802 -96.61936,83.98802 -10.60687,6.07218 -41.0274,21.52709 -42.29841,21.48937 -0.41897,-0.0124 -6.69191,-2.91126 -13.93986,-6.44185 z m 27.52109,-18.25896 c 68.71302,-33.82778 116.28547,-81.32555 137.49243,-137.27658 7.07524,-18.66683 12.48478,-41.87346 12.93402,-55.48621 l 0.23056,-6.98622 -9.36242,-3.7602 c -33.35914,-13.397932 -69.88749,-22.088412 -113.13758,-26.916632 -16.85497,-1.8816 -69.70489,-1.61527 -87.62787,0.44159 -38.72395,4.44401 -72.03269,12.33834 -105.14193,24.919142 -7.376,2.80271 -13.63415,5.67764 -13.90702,6.38872 -0.72241,1.88256 2.37522,22.28871 5.14594,33.89981 14.44551,60.53587 52.78765,109.63056 116.03088,148.57021 5.8082,3.57618 42.22146,22.81792 43.34299,22.90359 0.18864,0.0144 6.48864,-2.99934 14,-6.69722 z m -47.84299,-27.55808 c -1.48583,-0.75174 -2.60509,-2.26961 -2.75905,-3.74167 -0.5275,-5.04356 0.56221,-5.43901 16.46998,-5.97683 l 14.78907,-0.5 0.28014,-11.56603 0.28015,-11.56602 -7.52013,-1.16913 c -28.69859,-4.46167 -53.9812,-23.39241 -66.00917,-49.42538 -5.86491,-12.69383 -7.90687,-22.39363 -7.84664,-37.27344 0.0401,-9.89841 0.55586,-14.90867 2.16187,-21 3.12626,-11.85744 10.90872,-26.56131 19.13004,-36.14359 6.30443,-7.34805 14.77622,-14.356412 17.35422,-14.356412 1.16991,0 9.66952,9.069552 9.66952,10.317912 0,1.17202 -4.21264,4.60759 -5.70031,4.64882 -0.66017,0.0183 -1.67498,-0.75423 -2.25514,-1.71673 -0.92416,-1.53322 -2.04155,-0.72452 -9.02022,6.52831 -12.87718,13.38305 -19.55873,28.94591 -20.71882,48.25889 -2.20913,36.77703 23.00832,70.09896 59.45353,78.56091 14.66375,3.40467 33.13777,1.54571 47.24096,-4.75367 6.51545,-2.91021 19,-10.77157 19,-11.96405 0,-0.34953 -0.675,-1.1957 -1.5,-1.88039 -2.13837,-1.77469 -1.89276,-2.58415 1.52193,-5.01561 l 3.02192,-2.1518 1.97764,2.3337 c 1.0877,1.28354 2.93499,3.8293 4.10508,5.65725 2.84078,4.43792 1.79095,6.555 -6.28522,12.67486 -11.00784,8.34136 -28.0829,15.3562 -41.59135,17.08671 l -5.25,0.67255 v 11.87117 11.87117 h 14.47695 c 14.33859,0 14.4926,0.0239 16.11501,2.5 1.48912,2.27269 1.49638,2.71622 0.0799,4.87804 -0.91454,1.39576 -2.9241,2.61303 -4.86501,2.94692 -1.81877,0.31288 -16.80686,0.58902 -33.30686,0.61363 -22.27917,0.0332 -30.6434,-0.28078 -32.5,-1.22009 z m 21.5,-62.35904 c -18.79286,-3.83881 -26.48388,-7.38049 -35.52582,-16.35946 -11.08425,-11.00705 -15.97418,-23.10667 -15.97418,-39.52644 0,-12.6012 1.46884,-19.58033 6.19123,-29.41738 5.39561,-11.23941 16.76749,-22.82717 27.80877,-28.33671 12.11616,-6.04589 21.95055,-8.03574 36.91571,-7.46936 15.47335,0.58562 22.97707,2.78372 33.47725,9.80667 9.99416,6.6845 16.29041,15.33306 19.25095,26.44322 1.62415,6.09504 1.75027,19.51132 0.25101,26.70078 -2.59431,12.4405 -10.97149,24.23741 -20.48006,28.84044 -10.16082,4.91877 -24.66765,3.23818 -28.02083,-3.24615 l -1.56339,-3.02325 -3.16905,3.07156 c -8.69132,8.42396 -26.01462,8.04266 -33.95592,-0.74741 -12.31636,-13.63274 -2.51266,-44.69114 17.1331,-54.27816 9.4262,-4.59992 22.6312,-3.42589 27.26667,2.42423 1.57835,1.99193 1.62386,1.97324 2.69798,-1.10796 l 1.09254,-3.13408 h 8.05202 c 4.42861,0 8.05202,0.1457 8.05202,0.32377 0,0.17808 -1.14725,4.11558 -2.54945,8.75 -5.65668,18.69596 -9.45055,33.60699 -9.45055,37.1434 0,5.29264 3.45964,7.56091 9.00026,5.9009 5.67345,-1.69981 9.53053,-5.4065 12.93411,-12.42981 8.06135,-16.63463 6.0157,-37.01676 -4.91561,-48.97735 -8.79364,-9.62165 -19.81822,-13.66971 -37.30031,-13.69613 -15.68041,-0.0237 -26.93307,4.8587 -37.25689,16.16534 -9.60548,10.51991 -14.46156,23.9263 -14.46156,39.92464 0,19.84362 8.57057,34.97349 24.28052,42.86311 8.34101,4.18889 15.37091,5.36119 28.71948,4.78923 12.77939,-0.54757 23.58518,-3.49818 32.20723,-8.79446 l 4.70723,-2.89152 2.13614,2.99994 c 1.17487,1.64996 1.92226,3.54646 1.66086,4.21443 -0.71746,1.83337 -14.40579,8.33749 -21.21146,10.0788 -11.33135,2.89925 -30.91352,4.44272 -38,2.99517 z m 13.05479,-38.82233 c 5.18525,-3.34974 11.44521,-20.36921 11.44521,-31.11702 0,-6.81788 -2.48926,-10.42011 -7.20063,-10.42011 -7.15951,0 -16.35422,15.30229 -17.51512,29.14952 -1.06773,12.73584 4.57621,18.00427 13.27054,12.38761 z M -572.43846,92.471288 c 32.00298,-11.3141 59.70178,-17.67623 96.5,-22.16505 20.74882,-2.53104 79.3128,-2.53942 100,-0.0143 38.25321,4.66924 70.32729,12.17878 101.6632,23.80251 7.23977,2.68551 13.42727,4.88275 13.75,4.88275 0.32274,0 0.5868,-35.05499 0.5868,-77.89998 v -77.899989 l -8.34244,-3.492216 c -11.97052,-5.010968 -33.08886,-12.078639 -48.15756,-16.116893 -86.58678,-23.204352 -184.54531,-17.466244 -265.45819,15.549718 -5.202,2.122642 -9.5895,3.85935 -9.75,3.85935 -0.16049,0 -0.29181,35.15248 -0.29181,78.11663 0,73.93634 0.0936,78.08766 1.75,77.57531 0.9625,-0.29772 8.95,-3.08675 17.75,-6.19784 z m 283.9678,-30.443 c -6.06771,-2.06141 -14.95521,-4.78437 -19.75,-6.05103 -8.27181,-2.18518 -8.7178,-2.44297 -8.7178,-5.03912 0,-2.65153 0.16232,-2.73188 5.25,-2.59854 l 5.25,0.13759 0.85541,-20.31126 c 0.47047,-11.1712 0.60313,-20.5635303 0.2948,-20.8718603 -1.28188,-1.28188 -26.30755,-7.40192008 -39.90021,-9.75761 l -3.75,-0.6499 0.0136,19.2953203 c 0.008,10.61242 0.27963,20.2873 0.60471,21.49972 0.41462,1.54638 2.05235,2.68978 5.48635,3.83037 4.42397,1.46941 4.89529,1.91736 4.89529,4.65258 0,2.29513 -0.36679,2.88587 -1.51766,2.44424 -1.24909,-0.47933 -25.39836,-4.43547 -38.29329,-6.27322 -2.91323,-0.41519 -3.27359,-0.79539 -3,-3.16513 0.28177,-2.44052 0.71375,-2.70193 4.60349,-2.78579 2.36089,-0.0509 4.83589,-0.63535 5.5,-1.2988 1.44024,-1.43882 2.30544,-73.16942 0.99031,-82.10325 l -0.80884,-5.4946 -5.23701,-1.40007 c -4.79053,-1.280726 -5.23695,-1.647337 -5.23695,-4.30072 0,-2.713311 0.2099,-2.866815 3.25,-2.376811 1.7875,0.28811 6.85,1.010833 11.25,1.606051 8.84662,1.196744 24.02356,3.800513 26.75,4.58925 1.13133,0.32729 1.75,1.49959 1.75,3.31604 0,2.74793 -0.10132,2.79835 -4.6034,2.29091 -3.29533,-0.37144 -4.85383,-0.12342 -5.48469,0.87283 -0.48471,0.76544 -0.88818,9.32066 -0.8966,19.0116 l -0.0153,17.6199 6.25,1.21344 c 3.4375,0.6673997 12.70729,2.7509397 20.59953,4.6301097 7.89225,1.87916 15.01075,3.41666 15.8189,3.41666 1.25892,0 1.37969,-2.39894 0.84324,-16.7499997 -0.34437,-9.2125 -0.82968,-17.74553 -1.07848,-18.96228 -0.32546,-1.59167 -1.85232,-2.7095 -5.44278,-3.98472 -4.35681,-1.5474 -4.99042,-2.12354 -4.99042,-4.53772 0,-1.5209 0.33845,-2.76528 0.75211,-2.76528 1.28165,0 20.45502,5.60988 31.11118,9.10272 9.62981,3.15643 10.13671,3.46197 10.13671,6.10993 0,3.09795 0.0171,3.09189 -5.2689,1.86454 -3.17881,-0.73808 -3.9225,-0.58807 -4.75,0.95812 -1.07185,2.00278 -1.38634,80.84982 -0.33808,84.7634 0.38602,1.44114 2.43278,3.21948 5.48635,4.76685 3.85723,1.9546 4.87063,2.98479 4.87063,4.95129 0,1.37342 -0.55863,2.43826 -1.25,2.38271 -0.6875,-0.0552 -6.21449,-1.78705 -12.2822,-3.84846 z m -268.41328,-9.3662 c -10.50695,-51.3821004 -17.07877,-81.8617 -18.03626,-83.65079 -0.99955,-1.86766 -1.73795,-2.12168 -4.60436,-1.58394 -3.23397,0.6067 -3.4139,0.49082 -3.4139,-2.19874 0,-2.6848 0.4743,-2.99366 8.72169,-5.67953 9.65623,-3.14469 28.35046,-8.5719 29.5262,-8.5719 0.41366,0 0.75211,1.27877 0.75211,2.84171 0,2.44699 -0.55335,3.0075 -3.98368,4.03526 -6.13279,1.83742 -6.35918,3.06438 -3.46879,18.79954 3.99996,21.7756097 9.13089,43.96707 9.78569,42.32349 1.90752,-4.78788 26.66678,-76.196955 26.66678,-76.910615 0,-0.679577 6.07136,-2.252902 6.64069,-1.720859 0.12262,0.11459 20.00036,52.8432737 24.27063,64.3814737 0.8651,2.3375 1.81858,4.25 2.11885,4.25 0.30026,0 1.29924,-3.4875 2.21996,-7.7500001 0.92071,-4.2624999 3.97595,-17.5929796 6.78941,-29.6232796 2.92817,-12.52076 4.86033,-22.88952 4.51887,-24.25 -0.52815,-2.10434 -1.16734,-2.37672 -5.57746,-2.37672 -4.83755,0 -4.98095,-0.08407 -4.98095,-2.920406 0,-2.847495 0.15604,-2.936369 6.25,-3.55981 3.4375,-0.351672 10.3,-0.72499 15.25,-0.829594 8.94488,-0.189025 9,-0.175131 9,2.268815 0,2.000646 -0.64329,2.590572 -3.45114,3.164839 -1.89813,0.388209 -3.96774,1.41231 -4.59912,2.275776 -1.9281,2.63683 -12.22653,42.88944 -22.45312,87.76056 -2.37301,10.41203 -2.71388,10.79593 -9.61267,10.82617 -2.9837,0.0131 -3.23423,-0.31553 -5.89838,-7.73635 -3.92992,-10.94657 -22.52255,-59.50083 -23.21072,-60.6143 -0.56911,-0.92084 -8.01836,19.4318697 -21.34645,58.32233 -3.85612,11.25192 -7.17323,20.62013 -7.37135,20.81825 -0.19812,0.19812 -2.40368,0.97521 -4.90125,1.72687 l -4.54103,1.36665 z m 133.25535,-12.36014 c -1.61017,-0.32949 -2.63742,-1.82205 -3.87929,-5.63647 -4.37459,-13.43659 -19.74758,-53.37982 -21.13433,-54.91276 -0.85801,-0.94846 -2.51317,-2.02161 -3.67813,-2.38478 -2.84466,-0.88681 -3.6787,-2.40904 -2.51316,-4.58687 0.87385,-1.6328 2.62179,-1.80388 18.43022,-1.80388 h 17.46482 v 3 c 0,2.83723 -0.21874,3 -4.03138,3 -2.70808,0 -4.22543,0.50567 -4.62254,1.54051 -0.58748,1.53096 12.47942,40.46228 13.57879,40.45642 1.46746,-0.008 15.23286,-37.42232 14.48516,-39.3708 -0.29954,-0.78057 -2.56617,-1.72238 -5.03697,-2.09289 -4.14692,-0.62187 -4.46854,-0.87973 -4.18271,-3.35346 0.30926,-2.67638 0.31917,-2.67934 7.80965,-2.33188 4.125,0.19135 10.2,0.64135 13.5,1 5.57938,0.60639 6.0218,0.8409 6.31095,3.34535 0.27528,2.38439 -0.10205,2.77073 -3.29031,3.36886 -2.82357,0.5297 -3.99888,1.45974 -5.44253,4.30674 -1.76736,3.48538 -17.68987,41.2776 -21.7531,51.63115 -1.87213,4.7704 -2.14276,5.00627 -5.89362,5.13646 -2.16227,0.0751 -4.91695,-0.0652 -6.12152,-0.3117 z m -155.2641,-119.71255 c 34.88516,-13.244013 69.36745,-21.184758 111.95423,-25.781368 15.27824,-1.64905 68.11782,-1.62944 83,0.0308 40.33132,4.49936 73.86567,12.086155 106.5,24.094506 7.7,2.833345 14.7875,5.404787 15.75,5.714317 1.54544,0.496997 1.75,-0.200404 1.75,-5.966315 v -6.529095 l -7.75,-2.956353 c -25.11088,-9.57892 -56.12453,-17.86142 -84.75,-22.63334 -29.54061,-4.92446 -74.62674,-6.91589 -105.58734,-4.66372 -43.34544,3.15307 -82.75435,11.50496 -121.66266,25.783838 l -12.25,4.4956 v 6.39945 c 0,3.519698 0.3375,6.398441 0.75,6.397208 0.4125,-0.0012 5.9456,-1.97473 12.29577,-4.385548 z"
                           style="fill:#000000"
                           sodipodi:nodetypes="ssscsczcszccsssscsssscsssccsscscsscccsscccssccsssssscccccscccsccscccsssssssscsccsscsccssssssssssssscssssssssssssssscssssscsscsscsssccccscccsccccssscsccscccsscsssssccccscscccscsscscsccscscsssssscscscssscccssssscsscccccscccsscccscssscssscscccc" />
                      </g>
                    </g>
                  </g>
                </g>
              </g>
            </g>
          </g>
        </g>
      </g>
    </g>
  </g>
</svg>
